<?xml version="1.0" standalone="no"?>
<!DOCTYPE svg PUBLIC "-//W3C//DTD SVG 20010904//EN"
 "http://www.w3.org/TR/2001/REC-SVG-20010904/DTD/svg10.dtd">
<svg version="1.0" xmlns="http://www.w3.org/2000/svg"
 width="3125.000000pt" height="2083.000000pt" viewBox="0 0 3125.000000 2083.000000"
 preserveAspectRatio="xMidYMid meet">

<g transform="translate(0.000000,2083.000000) scale(0.100000,-0.100000)"
fill="#000000" stroke="none">
<path d="M15175 18809 c-787 -27 -1533 -162 -2305 -418 -393 -131 -675 -247
-1107 -457 l-193 -93 0 -91 0 -92 33 20 c90 54 349 188 477 247 935 430 1920
675 2954 735 98 5 234 10 302 10 l124 0 0 75 0 75 -32 -2 c-18 0 -132 -5 -253
-9z"/>
<path d="M15506 18187 c-34 -34 -34 -76 0 -108 23 -21 36 -24 122 -27 320 -8
638 -35 932 -78 2208 -321 4154 -1624 5310 -3554 903 -1508 1240 -3319 945
-5076 -541 -3221 -3132 -5719 -6370 -6143 -352 -46 -520 -56 -980 -56 -458 1
-559 7 -950 56 -1077 136 -2109 509 -3041 1100 -94 60 -177 115 -184 124 -7 8
-18 15 -25 15 -8 0 -15 4 -17 8 -1 5 -46 39 -98 77 -52 37 -122 89 -155 115
l-60 48 3 -109 3 -109 55 -41 c73 -54 301 -209 307 -209 3 0 61 -35 129 -79
842 -537 1874 -921 2888 -1075 612 -93 1268 -111 1885 -50 3196 312 5862 2612
6644 5731 276 1104 302 2253 75 3368 -346 1695 -1258 3219 -2594 4335 -1291
1078 -2924 1702 -4596 1757 l-202 6 -26 -26z"/>
<path d="M18636 16491 c-4 -7 -5 -15 -2 -18 9 -9 19 4 14 18 -4 11 -6 11 -12
0z"/>
<path d="M15110 15954 c-511 -44 -925 -127 -1350 -272 -813 -277 -1511 -717
-2115 -1333 -270 -276 -453 -503 -657 -814 -511 -779 -800 -1638 -869 -2583
-15 -210 -6 -704 16 -907 119 -1083 536 -2064 1235 -2905 134 -161 489 -516
650 -650 897 -746 1938 -1166 3095 -1251 231 -17 712 -6 935 20 666 79 1230
246 1804 533 174 87 195 98 361 196 231 137 479 314 706 503 145 121 488 460
611 604 762 893 1207 1981 1289 3150 15 216 7 687 -16 895 -53 496 -172 978
-352 1435 -117 298 -346 731 -530 1005 -312 465 -732 917 -1167 1254 -707 549
-1551 918 -2426 1060 -307 50 -415 58 -805 61 -203 1 -390 1 -415 -1z m905
-188 c1070 -124 1990 -516 2805 -1197 261 -217 597 -574 811 -859 512 -682
850 -1491 979 -2337 40 -267 54 -465 53 -783 -1 -691 -115 -1291 -365 -1919
-787 -1976 -2698 -3271 -4828 -3271 -1010 0 -1983 287 -2829 835 -579 374
-1111 900 -1498 1480 -880 1320 -1107 2976 -616 4490 139 430 359 883 612
1265 191 288 397 537 665 805 418 417 861 735 1381 990 560 274 1199 454 1795
505 69 5 141 12 160 14 88 10 753 -4 875 -18z"/>
<path d="M15270 15734 c-546 -30 -980 -111 -1445 -267 -510 -172 -987 -423
-1430 -752 -366 -271 -747 -650 -1027 -1020 -540 -715 -885 -1560 -998 -2450
-181 -1428 236 -2844 1170 -3965 134 -161 450 -476 610 -610 905 -753 1960
-1163 3113 -1209 1185 -47 2327 305 3272 1009 392 291 757 654 1046 1040 512
682 853 1497 974 2325 66 455 72 961 15 1410 -111 875 -449 1713 -977 2420
-275 369 -607 709 -970 992 -134 104 -440 310 -593 398 -637 368 -1393 603
-2135 665 -133 11 -524 20 -625 14z m586 -204 c1173 -93 2259 -591 3093 -1418
807 -801 1302 -1827 1436 -2977 22 -192 31 -677 16 -886 -63 -861 -330 -1652
-798 -2368 -180 -276 -372 -513 -611 -755 -248 -252 -474 -441 -752 -628 -601
-406 -1241 -663 -1945 -782 -310 -52 -424 -60 -815 -61 -384 0 -472 6 -770 51
-1375 210 -2600 1000 -3373 2175 -126 191 -191 306 -303 533 -282 569 -445
1173 -495 1826 -15 200 -6 707 15 890 56 469 155 873 312 1273 523 1325 1580
2357 2915 2845 396 145 859 246 1284 281 148 12 643 13 791 1z"/>
<path d="M15344 14511 c-40 -24 -64 -58 -64 -90 l0 -25 17 24 c9 14 27 37 41
53 59 63 161 16 163 -75 0 -39 1 -41 12 -20 17 36 -9 101 -52 129 -41 28 -76
29 -117 4z"/>
<path d="M15170 14276 c-103 -106 -277 -271 -395 -373 -33 -28 -57 -54 -54
-58 9 -8 179 144 372 334 150 147 196 199 185 204 -2 1 -50 -47 -108 -107z"/>
<path d="M15165 14219 c-107 -108 -249 -242 -374 -353 -38 -33 -42 -41 -33
-57 7 -10 12 -35 12 -54 l0 -35 730 -485 c402 -266 730 -486 730 -489 0 -5
-585 380 -1158 763 -253 169 -306 200 -318 190 -9 -7 -13 -20 -11 -29 2 -9 84
-149 182 -311 97 -162 179 -297 182 -301 2 -5 2 -8 -1 -8 -2 0 -89 140 -192
310 -103 171 -193 310 -201 310 -8 0 -13 -13 -14 -32 l-1 -33 -7 30 c-5 23
-12 31 -33 33 -24 3 -28 -2 -53 -78 -15 -45 -29 -80 -31 -77 -2 2 8 38 22 80
26 77 26 114 1 104 -8 -3 -80 -56 -162 -118 -348 -263 -737 -495 -1097 -654
-56 -25 -104 -47 -106 -49 -16 -17 47 -60 230 -159 117 -63 303 -163 412 -222
180 -98 201 -107 220 -95 12 8 39 19 61 25 33 10 42 10 51 -3 9 -12 58 37 267
266 254 278 256 280 254 322 -1 34 4 46 25 65 14 12 28 31 31 41 4 15 5 15 6
3 1 -10 13 -19 31 -22 17 -4 36 -18 46 -34 10 -15 24 -34 33 -40 13 -12 13
-13 -1 -13 -9 0 -20 -9 -23 -20 -4 -11 -17 -28 -30 -36 -13 -9 -26 -23 -28
-32 -4 -14 -5 -14 -6 -2 -1 13 -51 40 -73 40 -4 0 -120 -124 -258 -275 l-252
-276 17 -35 c10 -21 14 -46 11 -60 -5 -20 0 -27 44 -49 27 -14 50 -28 50 -30
0 -3 -23 6 -50 20 l-51 26 -26 -21 c-14 -11 -40 -20 -59 -20 -18 0 -35 -6 -37
-12 -4 -10 -6 -10 -6 1 -1 7 -13 27 -27 44 -18 21 -24 39 -22 63 1 18 -1 37
-6 41 -4 4 -193 108 -419 230 -410 220 -412 221 -432 202 -20 -20 -20 -20 34
-177 86 -251 91 -262 109 -262 10 0 28 -7 40 -16 27 -19 31 -84 6 -105 -10 -8
-13 -22 -10 -38 5 -25 5 -25 -6 -3 -8 16 -20 22 -43 22 -30 0 -36 -7 -160
-211 l-128 -212 18 -29 c11 -19 15 -40 11 -58 -5 -27 4 -35 154 -150 88 -66
160 -123 160 -126 0 -2 -72 50 -161 117 -149 112 -163 120 -187 110 -15 -5
-40 -11 -57 -13 -27 -3 -41 -23 -177 -250 l-149 -247 16 -30 c20 -40 19 -52
-8 -92 l-24 -34 44 -89 c24 -48 43 -90 41 -92 -2 -2 -24 37 -48 86 -44 89 -44
90 -81 90 l-38 0 -156 -260 c-86 -143 -159 -260 -162 -260 -3 0 1 10 9 23 44
68 298 496 298 501 0 4 -9 16 -20 28 -26 28 -26 78 0 110 l19 25 -39 82 c-52
108 -51 117 3 16 42 -80 42 -80 91 -88 27 -4 49 -7 51 -5 1 2 68 113 149 247
139 229 147 245 136 271 -7 16 -10 42 -8 59 3 29 -4 37 -100 110 l-103 79
-197 -115 c-108 -64 -203 -121 -210 -128 -11 -10 -1 -38 58 -155 39 -78 69
-144 66 -147 -2 -3 -36 61 -75 141 -38 80 -72 146 -76 146 -6 0 -292 -166
-311 -182 -8 -6 -7 -20 4 -51 20 -55 11 -90 -35 -136 l-36 -36 22 -165 c43
-325 130 -781 156 -816 11 -15 14 -14 35 7 21 23 22 23 11 2 -14 -28 -14 -30
5 -37 9 -3 59 19 122 55 130 75 129 74 119 63 -5 -5 -56 -36 -115 -70 -101
-58 -107 -63 -104 -91 2 -18 -5 -39 -19 -57 l-22 -27 28 -107 c32 -123 139
-461 162 -509 15 -32 17 -33 81 -33 52 0 74 -5 108 -25 24 -14 49 -35 55 -46
8 -16 17 -19 37 -14 25 6 26 6 10 -12 -14 -15 -15 -26 -7 -62 6 -26 6 -55 0
-76 -7 -26 -5 -37 8 -50 15 -15 15 -16 -4 -14 -27 3 -117 -84 -109 -106 9 -23
-33 -19 -46 5 -7 14 -21 20 -43 20 -40 0 -105 30 -134 61 -59 65 -58 176 2
239 36 38 30 83 -45 315 -38 116 -80 256 -95 313 -16 56 -32 102 -36 102 -5 0
-9 -2 -9 -5 0 -15 115 -399 149 -497 23 -65 41 -125 41 -133 0 -8 -18 -33 -40
-55 -46 -46 -76 -130 -65 -183 25 -115 123 -197 235 -197 l50 0 84 -169 c202
-403 430 -752 677 -1035 151 -174 144 -162 144 -223 0 -50 3 -57 37 -89 28
-25 47 -34 72 -34 19 0 38 4 41 10 4 6 -10 10 -35 10 -55 0 -89 33 -92 90 -1
22 -2 48 -2 58 -1 10 7 17 19 18 27 0 58 15 72 33 11 14 12 14 13 1 0 -9 20
-24 45 -35 34 -16 43 -24 40 -40 -2 -11 -7 -42 -10 -70 -4 -27 -10 -54 -15
-60 -18 -22 298 -279 540 -439 328 -217 632 -364 1014 -492 106 -35 163 -59
169 -71 47 -88 145 -95 187 -13 18 35 25 39 137 74 158 51 370 135 525 208
l127 61 36 -31 c44 -39 74 -47 120 -32 54 18 78 61 71 130 l-5 55 87 54 c100
63 253 169 330 230 38 30 50 46 43 54 -6 8 -5 18 5 31 20 28 17 53 -8 70 l-22
16 22 0 c12 0 22 4 22 9 0 4 12 25 26 46 14 21 23 46 21 57 -6 21 8 25 16 4 9
-23 87 2 87 29 1 17 3 16 16 -7 16 -31 25 -33 55 -17 14 7 24 7 33 0 10 -9 37
13 114 91 262 269 498 583 701 935 67 116 78 140 65 149 -7 6 -14 21 -14 32 0
12 -8 26 -17 31 -15 9 -16 12 -4 20 7 5 14 20 14 35 0 17 5 26 16 26 9 0 31 9
48 20 18 11 40 17 48 14 12 -5 27 19 64 97 78 169 161 373 222 549 l57 165 48
14 c55 15 79 33 100 73 29 55 9 126 -45 164 -32 23 -27 -2 9 -43 32 -36 39
-77 19 -116 -17 -33 -51 -57 -80 -57 -15 0 -32 -6 -39 -14 -14 -18 -40 -10
-40 11 0 8 -9 26 -20 40 -11 14 -20 33 -20 41 0 9 -7 24 -17 34 -14 16 -14 18
0 18 9 0 18 9 22 20 7 23 56 60 79 60 9 0 19 7 22 15 4 8 14 15 24 15 12 0 22
12 29 33 38 120 161 673 161 726 0 10 16 31 35 45 28 21 35 34 35 60 0 20 -7
39 -17 47 -15 11 -16 11 -5 -1 21 -24 14 -69 -14 -95 -30 -28 -64 -33 -64 -10
0 8 -4 15 -9 15 -5 0 -14 14 -20 32 -10 29 -9 33 26 64 26 23 41 30 52 24 12
-6 16 -3 18 13 0 12 13 114 27 227 22 177 56 520 56 573 0 9 -7 17 -15 17 -8
0 -19 9 -25 20 -6 10 -16 17 -23 14 -9 -3 -13 10 -15 46 -2 45 2 56 30 90 35
42 55 50 64 25 3 -8 14 -17 25 -20 25 -8 42 -41 41 -78 -1 -31 -36 -77 -59
-77 -7 0 -13 -4 -13 -9 0 -5 9 -7 20 -4 29 8 70 60 70 89 0 38 -27 82 -60 99
l-29 15 6 228 c6 233 2 288 -20 279 -19 -7 -118 78 -105 91 6 6 6 12 -1 16
-23 14 -9 33 39 54 54 24 90 19 116 -16 20 -26 17 -75 -7 -101 -12 -12 -19
-24 -17 -27 3 -2 15 7 27 20 16 17 23 37 23 62 0 31 -7 45 -37 72 -43 39 -77
39 -125 -2 -24 -19 -37 -23 -82 -19 -420 31 -748 103 -1118 248 -117 45 -339
141 -348 150 -2 2 -4 32 -5 67 -2 72 -20 108 -70 139 -66 40 -126 37 -181 -11
-19 -17 -39 -30 -46 -30 -16 0 -175 97 -345 210 -335 224 -688 516 -980 809
-66 67 -124 121 -130 121 -15 0 242 -256 400 -398 121 -108 417 -352 510 -419
16 -12 28 -24 25 -27 -6 -6 -245 173 -370 277 -159 133 -315 274 -448 406
-117 116 -152 145 -152 126 0 -3 6 -16 14 -28 8 -12 76 -137 151 -277 76 -140
158 -292 182 -337 25 -46 43 -83 40 -83 -2 0 -92 160 -198 355 l-194 355 -41
-6 c-43 -6 -88 10 -113 40 -8 9 -16 16 -20 16 -3 0 -60 -54 -126 -121z m-458
-661 c-3 -7 -5 -2 -5 12 0 14 2 19 5 13 2 -7 2 -19 0 -25z m1188 -38 c14 -27
23 -50 20 -50 -2 0 -16 23 -30 50 -14 28 -23 50 -20 50 2 0 16 -22 30 -50z
m-1178 -22 c-3 -7 -5 -2 -5 12 0 14 2 19 5 13 2 -7 2 -19 0 -25z m-218 -212
c-40 -114 -73 -205 -76 -203 -2 2 29 97 68 211 40 114 73 205 76 203 2 -2 -29
-97 -68 -211z m228 157 c-3 -10 -5 -4 -5 12 0 17 2 24 5 18 2 -7 2 -21 0 -30z
m1263 -98 c29 -55 48 -95 43 -90 -6 6 -34 55 -63 110 -29 55 -49 96 -43 90 6
-5 34 -55 63 -110z m-1253 38 c-3 -10 -5 -4 -5 12 0 17 2 24 5 18 2 -7 2 -21
0 -30z m10 -55 c-3 -7 -5 -2 -5 12 0 14 2 19 5 13 2 -7 2 -19 0 -25z m10 -60
c-3 -7 -5 -2 -5 12 0 14 2 19 5 13 2 -7 2 -19 0 -25z m10 -60 c-3 -7 -5 -2 -5
12 0 14 2 19 5 13 2 -7 2 -19 0 -25z m2402 8 c39 -21 63 -62 65 -110 1 -23 5
-47 9 -54 13 -19 0 -42 -22 -42 -33 0 -51 -11 -51 -33 0 -16 -3 -18 -12 -9
-17 17 -67 15 -74 -3 -8 -21 -24 -19 -24 3 0 19 -57 57 -79 53 -11 -2 -12 1
-5 11 15 18 5 108 -12 115 -8 3 -14 11 -14 18 0 15 27 28 41 19 5 -3 23 6 40
20 35 30 93 35 138 12z m-1084 -46 c9 -16 13 -30 11 -30 -3 0 -12 14 -21 30
-9 17 -13 30 -11 30 3 0 12 -13 21 -30z m-1308 -22 c-3 -7 -5 -2 -5 12 0 14 2
19 5 13 2 -7 2 -19 0 -25z m1368 -88 c9 -16 13 -30 11 -30 -3 0 -12 14 -21 30
-9 17 -13 30 -11 30 3 0 12 -13 21 -30z m-1761 -104 c-20 -59 -38 -105 -40
-103 -2 2 12 52 32 111 20 59 38 105 40 103 2 -2 -12 -52 -32 -111z m787 51
c35 7 79 -19 79 -47 0 -10 8 -24 18 -29 15 -9 15 -10 0 -11 -9 0 -25 -10 -35
-23 -10 -13 -23 -23 -28 -21 -6 1 -22 5 -36 8 -17 4 -31 17 -39 36 -7 17 -20
35 -29 40 -13 8 -12 9 7 10 24 0 28 18 12 53 l-11 22 17 -22 c12 -17 22 -21
45 -16z m-224 -3 c-3 -3 -12 -4 -19 -1 -8 3 -5 6 6 6 11 1 17 -2 13 -5z m40
-10 c-3 -3 -12 -4 -19 -1 -8 3 -5 6 6 6 11 1 17 -2 13 -5z m40 -10 c-3 -3 -12
-4 -19 -1 -8 3 -5 6 6 6 11 1 17 -2 13 -5z m1178 -34 c9 -16 13 -30 11 -30 -3
0 -12 14 -21 30 -9 17 -13 30 -11 30 3 0 12 -13 21 -30z m-878 -36 c-3 -3 -12
-4 -19 -1 -8 3 -5 6 6 6 11 1 17 -2 13 -5z m185 -41 c87 -20 156 -39 154 -41
-5 -4 -318 67 -325 74 -9 8 17 3 171 -33z m-685 -15 c-3 -7 -5 -2 -5 12 0 14
2 19 5 13 2 -7 2 -19 0 -25z m-513 -102 c-14 -42 -28 -75 -30 -73 -2 2 8 38
22 81 14 42 28 75 30 73 2 -2 -8 -38 -22 -81z m523 52 c-3 -8 -6 -5 -6 6 -1
11 2 17 5 13 3 -3 4 -12 1 -19z m870 16 c-3 -3 -12 -4 -19 -1 -8 3 -5 6 6 6
11 1 17 -2 13 -5z m88 -18 c28 -8 43 -15 35 -15 -8 0 -37 6 -65 13 -27 8 -43
15 -35 15 8 0 38 -6 65 -13z m-525 -16 c6 -11 8 -20 6 -20 -3 0 -10 9 -16 20
-6 11 -8 20 -6 20 3 0 10 -9 16 -20z m607 -6 c-3 -3 -12 -4 -19 -1 -8 3 -5 6
6 6 11 1 17 -2 13 -5z m-1030 -36 c-3 -7 -5 -2 -5 12 0 14 2 19 5 13 2 -7 2
-19 0 -25z m1070 26 c-3 -3 -12 -4 -19 -1 -8 3 -5 6 6 6 11 1 17 -2 13 -5z
m431 -24 c12 0 37 -8 55 -17 29 -16 32 -22 29 -57 -2 -21 -10 -49 -19 -62 -8
-13 -11 -29 -7 -36 6 -10 4 -10 -8 0 -13 10 -22 11 -38 2 -17 -9 -26 -7 -49
10 -16 11 -33 20 -39 20 -5 0 -9 14 -10 32 0 18 -8 38 -18 45 -16 12 -16 13 6
13 23 0 23 0 5 21 -19 20 -19 20 8 10 22 -9 29 -8 33 4 4 8 3 23 0 32 -6 16
-6 16 12 0 10 -9 28 -17 40 -17z m-391 14 c-3 -3 -12 -4 -19 -1 -8 3 -5 6 6 6
11 1 17 -2 13 -5z m-657 -24 c6 -11 8 -20 6 -20 -3 0 -10 9 -16 20 -6 11 -8
20 -6 20 3 0 10 -9 16 -20z m707 14 c-3 -3 -12 -4 -19 -1 -8 3 -5 6 6 6 11 1
17 -2 13 -5z m40 -10 c-3 -3 -12 -4 -19 -1 -8 3 -5 6 6 6 11 1 17 -2 13 -5z
m40 -10 c-3 -3 -12 -4 -19 -1 -8 3 -5 6 6 6 11 1 17 -2 13 -5z m-1230 -46 c-3
-7 -5 -2 -5 12 0 14 2 19 5 13 2 -7 2 -19 0 -25z m1360 16 c-3 -3 -12 -4 -19
-1 -8 3 -5 6 6 6 11 1 17 -2 13 -5z m-1350 -76 c-3 -7 -5 -2 -5 12 0 14 2 19
5 13 2 -7 2 -19 0 -25z m584 -135 c99 -166 105 -174 133 -167 22 5 57 -6 87
-27 12 -9 37 1 125 51 132 76 131 75 121 64 -5 -5 -56 -36 -115 -70 l-107 -62
-2 -42 c-1 -23 -9 -53 -18 -67 -17 -25 -15 -28 156 -312 201 -333 206 -342
187 -320 -7 9 -92 147 -188 307 l-175 291 -51 1 c-33 0 -56 5 -64 15 -18 22
-32 19 -100 -21 -34 -20 -64 -33 -67 -31 -3 3 15 16 39 28 83 42 98 57 91 90
-4 22 0 38 16 60 13 17 20 37 17 45 -3 8 -37 65 -74 127 -73 119 -105 177 -98
177 2 0 41 -62 87 -137z m-574 85 c-3 -8 -6 -5 -6 6 -1 11 2 17 5 13 3 -3 4
-12 1 -19z m-648 -67 c-12 -34 -23 -60 -25 -58 -2 2 6 32 17 66 12 34 23 60
25 58 2 -2 -6 -32 -17 -66z m1951 54 c0 -2 -10 -9 -22 -15 -22 -11 -22 -10 -4
4 21 17 26 19 26 11z m-1293 -47 c-3 -8 -6 -5 -6 6 -1 11 2 17 5 13 3 -3 4
-12 1 -19z m1450 -15 c-3 -10 -5 -4 -5 12 0 17 2 24 5 18 2 -7 2 -21 0 -30z
m-227 22 c0 -2 -10 -9 -22 -15 -22 -11 -22 -10 -4 4 21 17 26 19 26 11z m-70
-40 c0 -2 -10 -9 -22 -15 -22 -11 -22 -10 -4 4 21 17 26 19 26 11z m-1143 -27
c-3 -8 -6 -5 -6 6 -1 11 2 17 5 13 3 -3 4 -12 1 -19z m1093 -3 c0 -2 -13 -11
-30 -20 -38 -19 -40 -11 -2 9 31 17 32 18 32 11z m337 -52 c-3 -10 -5 -4 -5
12 0 17 2 24 5 18 2 -7 2 -21 0 -30z m-1420 -5 c-3 -7 -5 -2 -5 12 0 14 2 19
5 13 2 -7 2 -19 0 -25z m10 -60 c-3 -7 -5 -2 -5 12 0 14 2 19 5 13 2 -7 2 -19
0 -25z m1400 -25 c-3 -10 -5 -4 -5 12 0 17 2 24 5 18 2 -7 2 -21 0 -30z
m-1390 -25 c-3 -8 -6 -5 -6 6 -1 11 2 17 5 13 3 -3 4 -12 1 -19z m10 -60 c-3
-8 -6 -5 -6 6 -1 11 2 17 5 13 3 -3 4 -12 1 -19z m1370 -15 c-3 -10 -5 -4 -5
12 0 17 2 24 5 18 2 -7 2 -21 0 -30z m-1867 -29 c0 -2 -13 2 -30 11 -16 9 -30
18 -30 21 0 2 14 -2 30 -11 17 -9 30 -18 30 -21z m507 -16 c-3 -8 -6 -5 -6 6
-1 11 2 17 5 13 3 -3 4 -12 1 -19z m-1507 -83 c16 -49 28 -90 26 -92 -2 -3
-16 33 -31 79 -16 46 -30 90 -33 98 -3 8 -2 12 2 9 3 -3 20 -46 36 -94z m2857
38 c-3 -10 -5 -4 -5 12 0 17 2 24 5 18 2 -7 2 -21 0 -30z m-2218 -42 c-12 -34
-23 -60 -25 -58 -2 2 6 32 17 66 12 34 23 60 25 58 2 -2 -6 -32 -17 -66z m491
33 c0 -2 -13 2 -30 11 -16 9 -30 18 -30 21 0 2 14 -2 30 -11 17 -9 30 -18 30
-21z m387 -6 c-3 -8 -6 -5 -6 6 -1 11 2 17 5 13 3 -3 4 -12 1 -19z m-277 -54
c0 -2 -9 0 -20 6 -11 6 -20 13 -20 16 0 2 9 0 20 -6 11 -6 20 -13 20 -16z
m287 -6 c-3 -8 -6 -5 -6 6 -1 11 2 17 5 13 3 -3 4 -12 1 -19z m1320 -25 c-3
-10 -5 -4 -5 12 0 17 2 24 5 18 2 -7 2 -21 0 -30z m1419 -3 c18 0 15 -70 -4
-96 -21 -29 -51 -30 -88 -2 -16 12 -30 22 -32 23 -1 1 5 22 14 47 l17 45 41
-8 c23 -5 46 -8 52 -9z m-2671 -63 c49 -22 50 -23 53 -69 4 -50 -10 -73 -54
-96 -34 -18 -102 -11 -107 10 -3 10 -13 18 -22 18 -10 0 -13 5 -9 12 13 21 10
83 -5 101 -13 16 -13 17 2 11 10 -3 31 -1 47 6 24 10 30 19 31 44 1 27 2 28 8
8 4 -16 22 -31 56 -45z m-1530 -57 c14 -40 23 -75 21 -77 -2 -2 -14 26 -26 64
-13 37 -25 75 -28 83 -3 8 -2 12 1 9 4 -3 18 -39 32 -79z m2772 33 c-3 -10 -5
-4 -5 12 0 17 2 24 5 18 2 -7 2 -21 0 -30z m544 7 c19 0 49 -41 49 -66 0 -14
-7 -38 -16 -53 -14 -24 -23 -28 -60 -27 -40 0 -44 3 -60 38 -14 31 -15 43 -6
64 7 14 12 34 12 45 0 17 3 18 21 7 18 -11 23 -10 33 5 9 15 12 15 14 2 2 -8
8 -15 13 -15z m-554 -107 c-3 -10 -5 -4 -5 12 0 17 2 24 5 18 2 -7 2 -21 0
-30z m-10 -100 c-3 -10 -5 -2 -5 17 0 19 2 27 5 18 2 -10 2 -26 0 -35z m-2678
-45 c11 -34 19 -63 17 -65 -2 -3 -12 20 -21 49 -10 29 -20 59 -23 66 -2 6 -2
12 1 12 3 0 15 -28 26 -62z m2244 -245 c86 -47 157 -87 157 -90 0 -2 -53 24
-118 59 -65 35 -202 108 -305 163 -103 55 -187 103 -187 107 0 3 66 -30 148
-74 81 -44 218 -118 305 -165z m424 200 c-3 -10 -5 -4 -5 12 0 17 2 24 5 18 2
-7 2 -21 0 -30z m759 -28 c5 -29 2 -41 -16 -60 -25 -26 -53 -22 -88 13 -16 16
-17 21 -5 38 7 10 12 23 9 30 -3 7 13 12 44 13 49 1 49 1 56 -34z m-769 -72
c-3 -10 -5 -4 -5 12 0 17 2 24 5 18 2 -7 2 -21 0 -30z m-187 -43 c6 -11 8 -20
6 -20 -3 0 -10 9 -16 20 -6 11 -8 20 -6 20 3 0 10 -9 16 -20z m177 -47 c-3
-10 -5 -4 -5 12 0 17 2 24 5 18 2 -7 2 -21 0 -30z m-147 -3 c6 -11 8 -20 6
-20 -3 0 -10 9 -16 20 -6 11 -8 20 -6 20 3 0 10 -9 16 -20z m-2600 -67 c0 -7
-58 36 -66 49 -4 7 9 -1 29 -16 20 -16 37 -30 37 -33z m2630 17 c6 -11 8 -20
6 -20 -3 0 -10 9 -16 20 -6 11 -8 20 -6 20 3 0 10 -9 16 -20z m138 -61 c15 -6
35 -17 44 -26 10 -8 24 -13 32 -10 13 5 14 3 4 -12 -14 -23 -3 -68 20 -74 14
-4 14 -5 -3 -6 -18 -2 -65 -60 -65 -81 0 -4 -29 -6 -65 -4 l-65 4 -45 -90
c-25 -50 -47 -90 -50 -90 -3 0 15 40 40 90 49 98 52 111 30 130 -13 11 -22 10
-50 -3 -44 -21 -45 -15 -2 10 27 16 32 25 31 55 -1 47 -7 54 -65 83 -27 14
-49 28 -49 30 0 3 27 -8 60 -25 33 -16 62 -30 64 -30 3 0 10 9 16 20 8 14 7
26 -1 43 -12 22 -12 22 9 3 31 -27 71 -15 73 22 l2 27 4 -28 c3 -19 13 -31 31
-38z m-2598 -85 c0 -3 -36 23 -80 56 -44 33 -80 63 -80 66 0 3 36 -23 80 -56
44 -33 80 -63 80 -66z m179 -20 c28 -6 30 -11 34 -89 1 -22 6 -46 11 -54 6
-10 6 -12 -3 -7 -13 9 -71 -11 -71 -24 0 -4 -16 -4 -36 0 -28 7 -37 5 -42 -8
-5 -13 -8 -9 -12 13 -3 17 -15 34 -28 41 -13 6 -19 14 -14 18 5 3 12 25 15 48
4 32 1 48 -11 63 -9 11 -10 14 -2 8 23 -21 50 -16 51 10 0 12 3 16 6 10 8 -22
51 -15 60 10 7 21 8 21 11 -6 3 -21 10 -29 31 -33z m3379 -37 c50 -6 76 -26
103 -79 10 -20 24 -38 31 -41 9 -4 9 -6 -2 -6 -16 -1 -65 -85 -57 -98 8 -12
-93 -14 -130 -2 -39 12 -73 57 -73 94 0 15 -8 34 -17 41 -12 9 -14 13 -5 14
18 0 82 69 82 88 0 10 4 12 13 5 6 -6 31 -13 55 -16z m-781 7 c-3 -3 -12 -4
-19 -1 -8 3 -5 6 6 6 11 1 17 -2 13 -5z m-398 -58 c-10 -9 -89 -46 -89 -41 0
6 72 44 84 45 5 0 7 -2 5 -4z m-2399 -51 c0 -2 -10 -9 -22 -15 -22 -11 -22
-10 -4 4 21 17 26 19 26 11z m2280 -10 c0 -6 -157 -85 -167 -84 -6 0 154 86
165 88 1 1 2 -1 2 -4z m-2350 -30 c0 -2 -10 -9 -22 -15 -22 -11 -22 -10 -4 4
21 17 26 19 26 11z m4603 -17 c33 -1 36 -4 42 -40 4 -21 11 -41 16 -44 9 -5
-56 -64 -71 -64 -29 0 -70 15 -70 25 0 7 -9 24 -21 39 -15 19 -17 26 -7 26 8
0 20 16 28 35 10 26 18 34 31 30 9 -3 32 -6 52 -7z m-4653 -13 c0 -2 -13 -11
-30 -20 -38 -19 -40 -11 -2 9 31 17 32 18 32 11z m-70 -40 c0 -2 -10 -9 -22
-15 -22 -11 -22 -10 -4 4 21 17 26 19 26 11z m-70 -40 c0 -2 -10 -9 -22 -15
-22 -11 -22 -10 -4 4 21 17 26 19 26 11z m-70 -40 c0 -2 -10 -9 -22 -15 -22
-11 -22 -10 -4 4 21 17 26 19 26 11z m2730 -13 c0 -5 -7 -17 -15 -28 -14 -18
-14 -17 -4 9 12 27 19 34 19 19z m-2780 -17 c0 -2 -13 -11 -30 -20 -38 -19
-40 -11 -2 9 31 17 32 18 32 11z m3296 -52 c34 -31 40 -68 18 -112 -15 -32
-23 -38 -53 -39 -18 -1 -36 -4 -39 -6 -2 -3 -18 8 -35 24 -36 33 -42 87 -14
118 11 12 15 26 11 38 -6 16 -5 17 7 7 19 -19 59 -16 66 4 5 14 8 14 11 2 3
-7 15 -24 28 -36z m-3366 12 c0 -2 -10 -9 -22 -15 -22 -11 -22 -10 -4 4 21 17
26 19 26 11z m2793 -50 c-9 -19 -18 -33 -21 -31 -4 5 26 66 33 66 3 0 -3 -16
-12 -35z m-2863 10 c0 -2 -10 -9 -22 -15 -22 -11 -22 -10 -4 4 21 17 26 19 26
11z m1339 -40 c29 -17 3 -103 -32 -106 -77 -7 -74 -8 -85 30 -16 53 -20 91
-10 85 5 -3 15 0 23 6 9 7 30 16 48 19 25 6 33 3 39 -10 4 -9 11 -20 17 -24z
m-1611 -50 c18 -2 39 -8 47 -15 8 -6 18 -9 23 -6 15 9 -4 -94 -21 -111 -14
-15 -13 -22 24 -94 21 -43 39 -82 38 -86 0 -5 -20 31 -45 80 -40 79 -47 87
-73 87 -16 0 -34 7 -42 16 -7 9 -21 13 -32 10 -15 -4 -17 -2 -8 7 6 6 11 23
11 37 0 14 7 35 15 48 14 19 14 24 0 51 -22 44 -18 49 8 11 16 -24 30 -33 55
-35z m202 50 c0 -2 -10 -9 -22 -15 -22 -11 -22 -10 -4 4 21 17 26 19 26 11z
m-70 -40 c0 -2 -10 -9 -22 -15 -22 -11 -22 -10 -4 4 21 17 26 19 26 11z m-260
-150 c0 -2 -10 -9 -22 -15 -22 -11 -22 -10 -4 4 21 17 26 19 26 11z m-50 -30
c0 -2 -10 -9 -22 -15 -22 -11 -22 -10 -4 4 21 17 26 19 26 11z m-70 -39 c0 -2
-37 -25 -82 -51 -104 -60 -105 -60 -95 -49 7 7 168 103 175 104 1 0 2 -2 2 -4z
m-350 -46 c-6 -11 -13 -20 -16 -20 -2 0 0 9 6 20 6 11 13 20 16 20 2 0 0 -9
-6 -20z m5379 -37 c15 -1 34 -3 43 -4 23 -1 33 -68 17 -112 -12 -34 -13 -35
-70 -34 -32 0 -56 4 -54 8 3 3 -2 21 -11 38 -14 28 -14 33 0 58 9 16 18 36 22
45 3 10 11 15 17 11 6 -4 22 -8 36 -10z m-5409 -13 c-6 -11 -13 -20 -16 -20
-2 0 0 9 6 20 6 11 13 20 16 20 2 0 0 -9 -6 -20z m-30 -50 c-6 -11 -13 -20
-16 -20 -2 0 0 9 6 20 6 11 13 20 16 20 2 0 0 -9 -6 -20z m1935 -82 c17 2 36
9 44 15 12 10 13 9 8 -7 -8 -21 16 -45 46 -46 12 0 15 -4 11 -12 -4 -7 -6 -34
-5 -60 2 -43 -1 -52 -28 -77 -17 -16 -31 -34 -31 -40 0 -6 -4 -11 -10 -11 -5
0 -10 5 -10 10 0 6 -13 10 -30 10 -17 0 -30 -5 -30 -12 0 -7 -14 4 -31 25 -17
20 -37 37 -45 37 -8 0 -14 5 -14 10 0 6 5 10 11 10 7 0 9 9 6 22 -7 25 13 77
36 97 10 7 17 23 17 35 1 18 2 19 13 6 7 -9 24 -14 42 -12z m3101 -435 c-1
-13 5 -17 24 -15 17 2 21 -1 14 -8 -6 -6 -9 -32 -6 -60 3 -35 0 -57 -12 -74
-9 -14 -16 -32 -16 -41 0 -13 -4 -14 -20 -5 -17 9 -22 7 -28 -10 -7 -20 -9
-20 -21 -6 -8 9 -22 16 -31 16 -10 0 -32 11 -48 25 -17 14 -35 25 -42 25 -9 0
-9 4 -2 13 10 12 22 81 22 126 0 18 3 21 13 12 8 -6 17 -8 21 -3 4 4 33 10 64
13 31 3 60 7 63 8 4 0 6 -7 5 -16z m-3900 -49 c20 -5 24 -12 24 -43 0 -75 -48
-102 -106 -58 -27 20 -30 25 -22 54 5 18 13 35 18 38 5 3 6 13 3 23 -6 15 -5
15 11 2 16 -12 19 -12 29 5 10 18 12 18 15 3 2 -10 14 -21 28 -24z m2702 -268
c50 -37 92 -70 92 -73 0 -2 -19 9 -42 27 -24 17 -134 97 -245 178 -111 81
-203 150 -203 155 0 4 69 -44 153 -106 83 -62 194 -143 245 -181z m199 202
c-3 -8 -6 -5 -6 6 -1 11 2 17 5 13 3 -3 4 -12 1 -19z m-50 -190 c-3 -8 -6 -5
-6 6 -1 11 2 17 5 13 3 -3 4 -12 1 -19z m-23 -103 c3 -8 1 -15 -3 -15 -5 0
-11 7 -15 15 -3 8 -1 15 3 15 5 0 11 -7 15 -15z m37 -32 c13 -16 12 -17 -3 -4
-10 7 -18 15 -18 17 0 8 8 3 21 -13z m-54 -15 c-3 -8 -6 -5 -6 6 -1 11 2 17 5
13 3 -3 4 -12 1 -19z m94 -15 c13 -16 12 -17 -3 -4 -10 7 -18 15 -18 17 0 8 8
3 21 -13z m-104 -25 c-3 -8 -6 -5 -6 6 -1 11 2 17 5 13 3 -3 4 -12 1 -19z
m233 -53 c-14 -17 -30 -20 -30 -6 0 5 8 12 18 14 9 3 19 5 21 6 2 0 -2 -6 -9
-14z m-230 -95 c21 -9 34 -9 52 -1 23 12 23 12 2 -4 -18 -13 -21 -23 -17 -54
4 -30 0 -43 -20 -66 -23 -27 -24 -31 -9 -55 13 -22 11 -21 -10 4 -20 23 -30
28 -56 24 -21 -3 -32 0 -32 8 0 6 -7 17 -15 24 -11 10 -25 6 -70 -20 -30 -17
-55 -29 -55 -27 0 3 21 18 48 33 54 32 62 40 62 73 0 27 35 71 56 71 7 0 16
10 20 23 l8 22 4 -22 c2 -12 15 -26 32 -33z m120 35 c0 -2 -10 -9 -22 -15 -22
-11 -22 -10 -4 4 21 17 26 19 26 11z m2037 -97 c-3 -8 -6 -5 -6 6 -1 11 2 17
5 13 3 -3 4 -12 1 -19z m-2402 -117 c-20 -17 -497 -292 -501 -288 -4 4 494
296 506 297 2 0 0 -4 -5 -9z m152 -13 c-3 -8 -6 -5 -6 6 -1 11 2 17 5 13 3 -3
4 -12 1 -19z m-10 -40 c-3 -8 -6 -5 -6 6 -1 11 2 17 5 13 3 -3 4 -12 1 -19z
m143 2 c6 -11 8 -20 6 -20 -3 0 -10 9 -16 20 -6 11 -8 20 -6 20 3 0 10 -9 16
-20z m-163 -72 c-3 -8 -6 -5 -6 6 -1 11 2 17 5 13 3 -3 4 -12 1 -19z m213 -8
c6 -11 8 -20 6 -20 -3 0 -10 9 -16 20 -6 11 -8 20 -6 20 3 0 10 -9 16 -20z
m-223 -32 c-3 -8 -6 -5 -6 6 -1 11 2 17 5 13 3 -3 4 -12 1 -19z m-2174 -80
c11 -31 -15 -66 -51 -70 -28 -4 -37 1 -56 26 -25 34 -30 76 -9 76 7 0 13 7 13
16 0 11 6 13 19 9 11 -3 22 -1 26 5 7 11 47 -32 58 -62z m2164 40 c-3 -8 -6
-5 -6 6 -1 11 2 17 5 13 3 -3 4 -12 1 -19z m-10 -40 c-3 -8 -6 -5 -6 6 -1 11
2 17 5 13 3 -3 4 -12 1 -19z m1241 -47 c13 -7 16 -20 14 -53 -3 -35 -9 -46
-30 -56 -14 -6 -32 -12 -39 -12 -7 0 -13 -4 -13 -10 0 -18 -14 -10 -40 23 -18
23 -25 43 -25 78 0 30 3 45 10 42 6 -2 22 0 36 5 23 9 48 4 87 -17z m-1261
-23 c-3 -8 -6 -5 -6 6 -1 11 2 17 5 13 3 -3 4 -12 1 -19z m-10 -40 c-3 -8 -6
-5 -6 6 -1 11 2 17 5 13 3 -3 4 -12 1 -19z m-10 -40 c-3 -8 -6 -5 -6 6 -1 11
2 17 5 13 3 -3 4 -12 1 -19z m-20 -70 c-3 -8 -6 -5 -6 6 -1 11 2 17 5 13 3 -3
4 -12 1 -19z m-1094 -34 c-9 -23 46 -76 71 -68 17 5 19 4 9 -7 -20 -20 -16
-89 5 -105 16 -12 15 -13 -5 -14 -12 0 -27 -9 -33 -20 -6 -11 -24 -27 -40 -35
-17 -9 -30 -23 -30 -33 -1 -15 -2 -15 -13 -2 -7 8 -25 17 -42 19 -16 1 -42 12
-58 23 -16 12 -35 17 -45 13 -13 -5 -14 -3 -6 5 14 14 7 128 -10 149 -9 12 -7
13 8 8 25 -10 56 19 56 52 1 22 2 24 13 10 15 -19 90 -14 108 7 15 18 20 18
12 -2z m1084 -6 c-3 -8 -6 -5 -6 6 -1 11 2 17 5 13 3 -3 4 -12 1 -19z m-10
-40 c-3 -8 -6 -5 -6 6 -1 11 2 17 5 13 3 -3 4 -12 1 -19z m-10 -40 c-3 -8 -6
-5 -6 6 -1 11 2 17 5 13 3 -3 4 -12 1 -19z m-20 -70 c-3 -8 -6 -5 -6 6 -1 11
2 17 5 13 3 -3 4 -12 1 -19z m-10 -40 c-3 -8 -6 -5 -6 6 -1 11 2 17 5 13 3 -3
4 -12 1 -19z m-23 -92 c-9 -37 -18 -65 -21 -63 -2 3 4 34 13 71 9 37 18 65 21
63 2 -3 -4 -34 -13 -71z m1903 -68 c-3 -8 -6 -5 -6 6 -1 11 2 17 5 13 3 -3 4
-12 1 -19z m-1930 -30 c-3 -8 -6 -5 -6 6 -1 11 2 17 5 13 3 -3 4 -12 1 -19z
m-299 -59 c92 -41 119 -49 131 -40 53 38 80 51 108 51 20 0 36 7 42 18 9 15
10 15 11 -4 0 -11 12 -31 26 -45 35 -33 54 -71 54 -112 0 -25 6 -37 23 -45 20
-10 19 -10 -8 -6 -26 5 -33 1 -45 -20 -15 -28 -12 -37 35 -113 14 -24 24 -43
21 -43 -2 0 -21 27 -42 61 -30 50 -40 60 -58 55 -11 -3 -34 -6 -49 -6 -19 0
-30 -7 -37 -22 -8 -22 -9 -22 -9 -2 -1 21 -75 77 -95 72 -6 -2 -60 -29 -119
-62 -60 -32 -110 -56 -112 -54 -2 2 50 32 115 68 l118 64 0 63 0 62 -119 52
c-108 47 -131 59 -113 59 3 0 58 -23 122 -51z m1237 21 c47 -1 66 -13 92 -60
l19 -34 -25 -43 c-24 -40 -29 -42 -72 -43 -25 0 -54 6 -64 14 -11 8 -24 12
-30 10 -17 -7 -10 92 9 121 10 15 15 34 11 43 -5 14 -4 15 6 5 7 -7 31 -13 54
-13z m782 -206 c-3 -3 -12 -4 -19 -1 -8 3 -5 6 6 6 11 1 17 -2 13 -5z m-1557
-19 c14 -8 21 -14 15 -14 -5 0 -21 6 -35 14 -14 8 -20 14 -15 14 6 0 21 -6 35
-14z m70 -30 c14 -8 21 -14 15 -14 -5 0 -21 6 -35 14 -14 8 -20 14 -15 14 6 0
21 -6 35 -14z m-341 -119 c-6 -26 -13 -45 -16 -43 -2 3 1 26 8 51 6 26 13 45
16 43 2 -3 -1 -26 -8 -51z m511 44 c8 -5 11 -10 5 -10 -5 0 -17 5 -25 10 -8 5
-10 10 -5 10 6 0 17 -5 25 -10z m-254 -122 c21 -35 44 -73 52 -85 8 -13 12
-23 9 -23 -3 0 -22 28 -43 63 -21 34 -44 72 -52 85 -8 12 -12 22 -9 22 3 0 22
-28 43 -62z m459 24 c-3 -3 -11 0 -18 7 -9 10 -8 11 6 5 10 -3 15 -9 12 -12z
m-738 -24 c-3 -8 -6 -5 -6 6 -1 11 2 17 5 13 3 -3 4 -12 1 -19z m713 -1 c0 -2
-15 -16 -32 -33 l-33 -29 29 33 c28 30 36 37 36 29z m-723 -39 c-3 -8 -6 -5
-6 6 -1 11 2 17 5 13 3 -3 4 -12 1 -19z m-68 -262 c-34 -130 -64 -234 -66
-232 -3 2 24 110 58 240 34 130 64 235 66 232 2 -2 -24 -110 -58 -240z m441
164 c6 -11 8 -20 6 -20 -3 0 -10 9 -16 20 -6 11 -8 20 -6 20 3 0 10 -9 16 -20z
m240 17 c0 -2 -19 -21 -42 -42 l-43 -40 40 43 c36 39 45 47 45 39z m-1478 -54
c9 -8 21 -13 25 -10 13 8 13 -66 0 -104 -11 -31 -16 -34 -57 -37 -34 -2 -52 2
-72 17 -14 12 -32 21 -39 21 -10 0 -10 3 -1 12 7 7 12 26 12 44 0 17 6 37 14
44 8 6 13 17 10 23 -6 18 87 9 108 -10z m1288 -43 c6 -11 8 -20 6 -20 -3 0
-10 9 -16 20 -6 11 -8 20 -6 20 3 0 10 -9 16 -20z m76 -29 c-38 -39 -38 -39
-21 -67 l17 -29 -20 25 c-14 16 -24 21 -30 15 -229 -253 -540 -595 -584 -642
-59 -62 -68 -93 -26 -93 52 0 458 153 648 244 102 49 130 67 130 84 0 6 11 24
25 40 17 20 23 36 18 49 -6 15 -4 16 9 5 8 -7 45 -13 83 -13 66 -1 67 -1 62
-27 -3 -14 -1 -37 4 -50 13 -33 -5 -86 -36 -106 -39 -25 -89 -20 -122 12 -15
16 -35 31 -44 34 -10 4 -58 -14 -116 -42 -153 -74 -322 -143 -504 -205 -161
-54 -167 -57 -188 -95 -24 -43 -68 -64 -104 -51 -27 10 -77 73 -77 95 0 9 7
16 15 16 8 0 15 9 15 21 0 11 5 17 10 14 6 -3 10 1 10 11 0 13 3 14 15 4 20
-16 61 28 70 76 3 20 9 34 11 31 3 -3 0 -24 -6 -47 -9 -34 -9 -45 2 -51 29
-19 -3 -51 550 554 121 132 136 152 127 171 -9 19 -9 19 4 4 13 -16 16 -15 47
17 19 19 36 35 39 35 3 0 -12 -18 -33 -39z m34 -151 c6 -11 8 -20 6 -20 -3 0
-10 9 -16 20 -6 11 -8 20 -6 20 3 0 10 -9 16 -20z m30 -50 c6 -11 8 -20 6 -20
-3 0 -10 9 -16 20 -6 11 -8 20 -6 20 3 0 10 -9 16 -20z m-741 -269 c-23 -89
-44 -159 -46 -157 -2 2 15 76 38 165 23 89 44 159 46 157 2 -2 -15 -76 -38
-165z"/>
<path d="M14622 13825 c-17 -14 -33 -39 -36 -57 -6 -28 -30 -50 -169 -154
-408 -306 -783 -526 -1176 -690 -19 -8 -32 -17 -28 -20 7 -7 186 70 338 147
250 125 575 326 819 507 172 127 207 159 232 209 17 34 33 51 63 64 37 16 38
18 13 18 -14 1 -40 -10 -56 -24z"/>
<path d="M13144 12905 c-18 -13 -18 -14 4 -8 12 3 25 9 28 14 8 14 -10 11 -32
-6z"/>
<path d="M13094 12871 c-15 -16 -250 -91 -409 -131 -173 -44 -349 -75 -517
-92 -65 -6 -115 -15 -111 -19 9 -8 222 13 354 36 215 37 677 167 695 196 8 14
0 21 -12 10z"/>
<path d="M13060 12814 c-70 -31 -361 -114 -501 -143 -129 -27 -277 -49 -440
-66 l-56 -6 -6 -43 c-3 -23 -9 -49 -12 -58 -5 -12 25 -40 121 -112 l128 -96
25 24 c14 13 36 27 49 31 36 11 87 -12 107 -48 l17 -32 377 23 c207 12 385 24
396 27 11 3 29 18 41 35 l21 30 -71 203 c-60 172 -74 202 -92 205 -12 2 -30
12 -40 23 -20 23 -19 22 -64 3z"/>
<path d="M11760 12758 c-87 -45 -134 -141 -110 -227 15 -55 81 -127 135 -145
l40 -14 6 -224 c4 -122 13 -313 20 -422 9 -155 9 -201 0 -204 -27 -9 -70 -55
-81 -86 -9 -27 -8 -42 3 -68 16 -39 60 -78 88 -78 10 0 20 -4 23 -9 4 -5 15
-78 27 -163 35 -266 138 -820 155 -837 14 -15 10 21 -16 135 -41 182 -94 479
-121 679 -18 134 -27 175 -43 193 -10 12 -25 22 -32 22 -7 0 -24 14 -38 31
-37 44 -34 83 9 126 19 19 35 39 35 43 0 5 5 10 10 12 7 2 7 41 0 118 -6 63
-13 248 -16 410 -6 334 -9 345 -76 382 -147 81 -92 298 76 298 57 0 105 -23
132 -65 16 -24 54 -35 54 -15 0 19 -84 103 -117 116 -48 21 -113 17 -163 -8z"/>
<path d="M12000 12435 l-34 -35 39 -80 39 -80 46 0 c99 0 200 13 200 25 0 7
-44 45 -97 86 -54 40 -112 83 -129 96 l-30 23 -34 -35z"/>
<path d="M11908 12377 l-38 -11 0 -68 0 -68 80 0 c48 0 80 4 80 10 0 17 -70
150 -78 149 -4 -1 -24 -6 -44 -12z"/>
<path d="M12823 12276 c-177 -12 -323 -23 -325 -26 -2 -3 -12 -23 -21 -44 -21
-46 -35 -30 134 -159 l127 -97 268 158 c157 93 270 166 272 175 4 22 -26 21
-455 -7z"/>
<path d="M13019 12104 c-145 -86 -265 -157 -267 -158 -1 -2 43 -38 99 -80 70
-53 107 -75 118 -70 9 4 31 9 48 12 30 4 41 18 154 206 126 207 137 230 122
239 -5 3 -128 -64 -274 -149z"/>
<path d="M12133 12233 c-40 -2 -73 -8 -73 -12 0 -17 252 -521 258 -518 90 49
402 240 402 245 -1 4 -63 53 -139 109 -127 95 -140 102 -173 97 -46 -8 -91 16
-108 56 -11 27 -16 30 -54 28 -22 -1 -74 -4 -113 -5z"/>
<path d="M11877 12213 c-13 -13 -4 -308 19 -601 6 -82 7 -84 39 -99 l33 -16
167 98 c91 54 164 101 163 105 -2 4 -59 123 -128 264 l-125 256 -81 0 c-44 0
-84 -3 -87 -7z"/>
<path d="M12038 10245 c-13 -29 4 -80 33 -96 26 -14 24 3 -2 19 -18 12 -21 20
-15 58 6 49 1 56 -16 19z"/>
<path d="M18200 8889 c0 -4 7 -20 15 -35 8 -16 15 -34 15 -41 0 -23 -46 -65
-80 -73 l-35 -8 33 -1 c72 -2 117 87 72 140 -10 13 -19 21 -20 18z"/>
<path d="M17216 7531 c-3 -4 4 -25 14 -47 11 -21 20 -51 20 -66 0 -68 -52
-131 -119 -144 -36 -7 -116 19 -129 42 -5 9 -15 12 -26 8 -16 -6 -16 -8 1 -26
27 -30 88 -58 124 -58 54 0 118 38 150 88 35 56 38 108 8 169 -20 42 -32 52
-43 34z"/>
<path d="M18487 5435 c3 -8 9 -12 14 -9 12 7 11 11 -5 17 -10 4 -13 1 -9 -8z"/>
<path d="M21502 5201 c-172 -193 -559 -574 -739 -728 -497 -426 -990 -761
-1563 -1060 -171 -90 -493 -239 -640 -298 -52 -20 -104 -41 -115 -45 -11 -5
-66 -25 -122 -46 l-103 -37 0 -88 0 -88 83 30 c45 17 97 37 115 45 17 8 47 20
65 28 17 8 66 28 107 44 356 141 851 395 1216 622 664 414 1287 938 1797 1510
l147 165 -33 28 c-17 15 -44 36 -58 47 l-25 19 -132 -148z"/>
</g>
</svg>
